<?xml version="1.0" standalone="no"?>
<!DOCTYPE svg PUBLIC "-//W3C//DTD SVG 20010904//EN"
 "http://www.w3.org/TR/2001/REC-SVG-20010904/DTD/svg10.dtd">
<svg version="1.0" xmlns="http://www.w3.org/2000/svg"
 width="500.000000pt" height="500.000000pt" viewBox="0 0 500.000000 500.000000"
 preserveAspectRatio="xMidYMid meet">
<metadata>
Created by potrace 1.14, written by Peter Selinger 2001-2017
</metadata>
<g transform="translate(0.000000,500.000000) scale(0.100000,-0.100000)"
fill="#000000" stroke="none">
<path d="M0 2500 l0 -2500 2500 0 2500 0 0 2500 0 2500 -2500 0 -2500 0 0
-2500z m2490 230 c0 -849 -2 -1545 -5 -1548 -3 -3 -5 694 -5 1548 0 854 2
1551 5 1548 3 -3 5 -699 5 -1548z m-343 1484 c-3 -3 -12 -4 -19 -1 -8 3 -5 6
6 6 11 1 17 -2 13 -5z m93 -142 c0 -17 -38 -44 -45 -32 -4 6 1 18 11 25 22 16
34 19 34 7z m-392 -32 c11 0 13 -3 5 -8 -6 -4 -15 -20 -18 -35 -4 -15 -10 -27
-14 -28 -3 0 -14 -2 -24 -4 -9 -2 -15 1 -12 5 3 5 1 11 -5 15 -6 4 -8 11 -4
16 3 5 10 6 16 3 6 -4 8 1 3 15 -5 15 -2 21 9 21 9 0 16 6 17 13 0 10 2 10 6
0 2 -7 12 -13 21 -13z m49 -12 c-3 -8 -6 -5 -6 6 -1 11 2 17 5 13 3 -3 4 -12
1 -19z m380 0 c-3 -8 -6 -5 -6 6 -1 11 2 17 5 13 3 -3 4 -12 1 -19z m-384 -30
c8 7 22 9 32 6 15 -6 16 -9 3 -18 -20 -15 -40 -54 -33 -65 9 -16 -31 -22 -59
-10 -29 14 -34 34 -11 43 8 3 20 17 27 31 8 17 14 22 19 13 6 -9 11 -9 22 0z
m930 2 c-23 -5 -55 -16 -71 -24 -97 -50 -131 -191 -69 -285 24 -37 122 -117
184 -151 108 -60 181 -118 224 -178 99 -136 92 -287 -17 -398 -66 -65 -119
-85 -228 -82 l-81 1 75 6 c93 7 145 32 185 89 26 38 30 54 34 122 3 67 0 84
-18 114 -32 51 -84 94 -211 173 -179 112 -239 179 -263 293 -37 177 84 328
263 328 35 0 35 0 -7 -8z m281 -134 c1 -132 -5 -165 -19 -109 -21 83 -97 192
-149 213 -21 9 -21 9 0 9 11 1 29 -6 40 -14 21 -16 54 -20 54 -6 0 10 62 52
68 46 2 -2 5 -65 6 -139z m-774 124 c0 -5 -4 -10 -10 -10 -5 0 -10 5 -10 10 0
6 5 10 10 10 6 0 10 -4 10 -10z m-350 -14 c0 -3 -4 -8 -10 -11 -5 -3 -10 -1
-10 4 0 6 5 11 10 11 6 0 10 -2 10 -4z m-196 -50 c-12 -9 -21 -11 -25 -4 -4 7
-9 6 -13 -1 -9 -13 -26 -15 -26 -2 0 11 23 18 59 20 24 1 24 0 5 -13z m181 4
c-3 -5 -12 -10 -18 -10 -7 0 -6 4 3 10 19 12 23 12 15 0z m-155 -24 c0 -11
-19 -15 -25 -6 -3 5 1 10 9 10 9 0 16 -2 16 -4z m434 -7 c-6 -11 -44 -12 -44
-1 0 4 11 8 25 8 14 1 22 -2 19 -7z m-144 -39 c0 -5 -2 -10 -4 -10 -3 0 -8 5
-11 10 -3 6 -1 10 4 10 6 0 11 -4 11 -10z m-30 -15 c0 -8 -9 -15 -19 -15 -11
0 -23 -4 -26 -10 -3 -5 -1 -10 4 -10 6 0 11 -6 11 -12 0 -7 -11 -1 -23 13 -13
14 -29 23 -37 21 -8 -3 -11 -1 -7 4 4 4 23 7 42 6 18 -1 36 2 40 8 9 14 15 12
15 -5z m-107 -29 c4 -10 0 -12 -14 -9 -10 3 -16 9 -13 14 8 13 21 11 27 -5z
m-274 -40 c-12 -10 -60 -16 -54 -6 3 5 18 10 32 10 15 0 24 -2 22 -4z m11 -29
c0 -19 -10 -27 -25 -20 -17 6 -8 33 11 33 8 0 14 -6 14 -13z m370 -57 c0 -5
-4 -10 -10 -10 -5 0 -10 5 -10 10 0 6 5 10 10 10 6 0 10 -4 10 -10z m-640
-110 c0 -5 -2 -10 -4 -10 -3 0 -8 5 -11 10 -3 6 -1 10 4 10 6 0 11 -4 11 -10z
m167 -92 c-3 -7 -5 -2 -5 12 0 14 2 19 5 13 2 -7 2 -19 0 -25z m307 -54 c3 -8
2 -12 -4 -9 -6 3 -10 10 -10 16 0 14 7 11 14 -7z m-322 -27 c-17 -8 -26 -7
-38 4 -13 13 -10 14 23 11 35 -5 36 -6 15 -15z m118 -7 c0 -5 -4 -10 -10 -10
-5 0 -10 5 -10 10 0 6 5 10 10 10 6 0 10 -4 10 -10z m-185 -10 c4 -6 -6 -10
-22 -10 -22 0 -25 2 -13 10 19 12 27 12 35 0z m442 -36 c-3 -3 -12 -4 -19 -1
-8 3 -5 6 6 6 11 1 17 -2 13 -5z m171 -1 c-10 -2 -26 -2 -35 0 -10 3 -2 5 17
5 19 0 27 -2 18 -5z m-838 -83 c0 -5 -8 -10 -17 -10 -15 0 -16 2 -3 10 19 12
20 12 20 0z m1017 -32 c-3 -8 -6 -5 -6 6 -1 11 2 17 5 13 3 -3 4 -12 1 -19z
m-897 -48 c0 -5 -2 -10 -4 -10 -3 0 -8 5 -11 10 -3 6 -1 10 4 10 6 0 11 -4 11
-10z m1166 -77 c39 -103 84 -162 149 -196 22 -12 25 -16 11 -17 -10 0 -35 10
-56 21 l-39 22 -31 -27 c-60 -50 -65 -43 -65 109 0 74 3 135 7 135 3 0 14 -21
24 -47z m-607 -428 c133 -32 220 -104 242 -200 31 -141 -48 -261 -198 -299
-26 -7 -48 -16 -50 -22 -2 -5 21 -18 49 -28 29 -10 67 -29 85 -42 63 -48 72
-70 97 -256 13 -95 27 -181 31 -190 8 -19 50 -25 60 -8 3 6 11 10 17 10 16 0
-11 -29 -43 -46 -59 -30 -136 -8 -165 47 -9 18 -20 77 -25 133 -28 312 -61
367 -224 370 l-70 1 -3 -256 -2 -256 42 -14 43 -14 -72 -3 c-40 -2 -107 -2
-150 0 l-78 3 43 14 42 14 0 514 0 513 -32 14 c-30 13 -20 14 132 15 114 0
185 -4 229 -14z m1506 -515 c3 -5 1 -10 -4 -10 -6 0 -11 5 -11 10 0 6 2 10 4
10 3 0 8 -4 11 -10z m-858 -42 c-3 -8 -6 -5 -6 6 -1 11 2 17 5 13 3 -3 4 -12
1 -19z m328 12 c3 -6 -4 -10 -17 -10 -18 0 -20 2 -8 10 19 12 18 12 25 0z
m671 -29 c-4 -6 -14 -7 -23 -4 -15 6 -14 7 3 13 22 9 29 6 20 -9z m-281 -22
c-4 -5 -16 -9 -28 -9 -20 0 -20 0 -2 14 21 15 40 12 30 -5z m85 -9 c0 -5 -4
-10 -10 -10 -5 0 -10 5 -10 10 0 6 5 10 10 10 6 0 10 -4 10 -10z m220 -35 c0
-2 -9 -9 -20 -15 -16 -9 -18 -8 -14 5 5 13 34 22 34 10z m-403 -107 c-3 -8 -6
-5 -6 6 -1 11 2 17 5 13 3 -3 4 -12 1 -19z m328 -28 c3 -5 -1 -10 -10 -10 -9
0 -13 5 -10 10 3 6 8 10 10 10 2 0 7 -4 10 -10z m-636 -115 c0 -5 -4 -3 -9 5
-5 8 -9 22 -9 30 0 16 17 -16 18 -35z m381 -61 c0 -8 8 -14 18 -15 10 0 12 -2
4 -6 -7 -3 -24 3 -39 12 -19 13 -22 19 -12 25 16 11 29 4 29 -16z m-170 -20
c0 -2 -11 -4 -25 -4 -14 0 -25 4 -25 9 0 4 11 6 25 3 14 -2 25 -6 25 -8z
m-183 -26 c-3 -8 -6 -5 -6 6 -1 11 2 17 5 13 3 -3 4 -12 1 -19z m91 -9 c11 0
8 -4 -8 -10 -13 -6 -32 -17 -41 -25 -14 -12 -16 -12 -16 0 0 8 11 17 23 20 13
4 22 12 20 19 -1 6 -1 9 1 5 3 -5 12 -8 21 -9z m85 -90 c-9 -9 -12 -7 -10 9 1
14 5 18 11 12 7 -7 6 -14 -1 -21z m-346 -1 c-3 -8 -6 -5 -6 6 -1 11 2 17 5 13
3 -3 4 -12 1 -19z m130 -10 c-3 -8 -6 -5 -6 6 -1 11 2 17 5 13 3 -3 4 -12 1
-19z m332 6 c11 -4 8 -9 -9 -21 -21 -15 -24 -15 -35 0 -15 21 -26 22 -19 3 3
-9 -3 -17 -16 -21 -13 -4 -19 -12 -16 -21 3 -8 0 -14 -6 -14 -6 0 -8 -3 -5 -7
4 -3 16 2 27 12 18 17 20 17 20 1 0 -10 5 -14 11 -10 7 4 9 2 5 -7 -3 -8 -9
-21 -12 -31 -7 -20 -41 -30 -48 -14 -3 7 -8 6 -16 -4 -9 -12 -10 -11 -5 8 8
29 -16 56 -35 39 -10 -9 -14 -9 -17 1 -3 6 -9 10 -14 7 -5 -4 -6 1 -3 9 4 10
1 16 -7 16 -10 0 -10 3 -3 8 6 4 14 14 17 22 3 8 6 0 6 -17 1 -18 6 -33 11
-33 10 0 15 27 11 64 -1 18 0 19 18 2 18 -16 20 -16 52 2 31 17 48 18 88 6z
m-489 -10 c0 -8 -5 -12 -10 -9 -6 4 -8 11 -5 16 9 14 15 11 15 -7z m-80 -104
c0 -5 -2 -10 -4 -10 -3 0 -8 5 -11 10 -3 6 -1 10 4 10 6 0 11 -4 11 -10z m37
-12 c-3 -8 -6 -5 -6 6 -1 11 2 17 5 13 3 -3 4 -12 1 -19z m69 -25 c-11 -11
-17 4 -9 23 7 18 8 18 11 1 2 -10 1 -21 -2 -24z m-1718 -885 c-3 -175 -4 -183
-23 -183 -19 0 -20 8 -23 183 l-2 182 25 0 25 0 -2 -182z m121 156 c24 -19 31
-34 31 -60 0 -39 -29 -74 -62 -74 -20 0 -20 1 -5 18 32 35 18 119 -23 135 -10
4 -8 6 7 6 12 1 35 -11 52 -25z m212 12 c-17 -20 -41 -121 -41 -169 1 -42 22
-146 35 -166 10 -18 -11 -13 -27 7 -36 41 -49 83 -49 162 0 79 13 122 49 163
19 21 51 25 33 3z m106 -1 c37 -26 56 -93 52 -188 -4 -73 -7 -88 -32 -120 -36
-48 -52 -47 -31 1 12 25 17 68 18 137 1 83 -3 107 -20 143 -23 45 -21 50 13
27z m189 6 c-7 -11 51 -168 65 -177 5 -3 9 -45 9 -95 0 -88 0 -89 -24 -89 -24
0 -25 3 -29 88 -3 70 -10 104 -39 175 -19 49 -41 93 -49 98 -9 6 0 9 29 9 24
0 41 -4 38 -9z m157 -9 c-11 -10 -20 -13 -22 -7 -2 5 -9 13 -15 17 -6 4 4 8
22 8 31 0 31 -1 15 -18z m190 -59 c13 -43 35 -112 47 -153 12 -41 26 -85 31
-98 14 -35 11 -42 -16 -42 -20 0 -26 7 -35 43 -6 23 -15 50 -20 59 -6 10 -10
25 -10 34 0 8 -11 49 -25 91 -18 52 -24 85 -19 109 3 19 10 34 14 34 4 0 19
-35 33 -77z m250 70 c-10 -3 -13 -50 -13 -184 0 -172 -1 -179 -20 -179 -19 0
-20 7 -20 179 0 134 -3 181 -12 184 -7 3 7 5 32 5 25 0 39 -2 33 -5z m414 -11
c-10 -10 -17 -32 -17 -49 0 -32 14 -47 110 -116 57 -41 72 -89 47 -142 -9 -20
-24 -35 -34 -35 -13 0 -14 3 -5 12 7 7 12 28 12 48 0 40 -12 54 -89 106 -80
53 -103 123 -56 169 28 29 57 35 32 7z m135 -17 c-5 -42 -13 -44 -29 -8 -10
21 -10 28 0 35 24 16 33 8 29 -27z m176 28 c-16 -4 -18 -20 -18 -155 0 -136 2
-153 21 -179 17 -25 18 -29 4 -29 -9 0 -27 12 -40 26 -24 26 -25 31 -25 180 0
137 -2 153 -17 157 -10 3 7 5 37 5 30 0 47 -2 38 -5z m170 0 c-16 -4 -18 -21
-20 -146 l-2 -142 -3 142 c-3 124 -6 142 -21 146 -9 3 1 5 23 5 22 0 32 -2 23
-5z m162 -8 c-8 -10 -11 -62 -8 -185 3 -170 3 -170 -19 -170 -22 0 -22 2 -25
185 l-3 185 34 0 c28 0 32 -2 21 -15z m140 3 c-1 -7 -7 -24 -15 -38 l-14 -25
-1 38 c0 26 4 37 15 37 8 0 15 -6 15 -12z m100 -173 l0 -185 -25 0 -25 0 0
178 c0 98 3 182 7 185 3 4 15 7 25 7 17 0 18 -12 18 -185z m90 143 c0 -39 -1
-40 -15 -22 -19 25 -19 64 0 64 11 0 15 -11 15 -42z m158 -140 c-3 -181 -3
-183 -25 -186 l-23 -3 0 185 0 186 25 0 25 0 -2 -182z m130 141 c2 -32 1 -33
-13 -15 -18 24 -20 59 -2 54 6 -3 13 -20 15 -39z m-1991 -81 c-3 -8 -6 -5 -6
6 -1 11 2 17 5 13 3 -3 4 -12 1 -19z m1943 -54 c0 -45 -10 -51 -29 -15 -7 13
-6 24 5 39 8 12 17 22 20 22 2 0 4 -21 4 -46z m-1953 4 c-3 -8 -6 -5 -6 6 -1
11 2 17 5 13 3 -3 4 -12 1 -19z m-800 -18 c18 -11 35 -30 38 -42 13 -60 21
-139 14 -144 -16 -10 -49 36 -49 69 0 51 -19 105 -43 122 -32 23 1 19 40 -5z
m777 -75 c-4 -8 -8 -15 -10 -15 -2 0 -4 7 -4 15 0 8 4 15 10 15 5 0 7 -7 4
-15z m-17 -47 c-3 -8 -6 -5 -6 6 -1 11 2 17 5 13 3 -3 4 -12 1 -19z m483 -23
c0 -24 -5 -35 -15 -35 -17 0 -20 23 -5 51 15 27 20 24 20 -16z m267 -27 c-22
-14 -27 -8 -27 30 l0 37 20 -30 c14 -22 16 -31 7 -37z m1301 30 c-2 -22 -9
-34 -20 -36 -20 -4 -22 6 -8 42 14 37 32 32 28 -6z m-821 0 c-3 -8 -6 -5 -6 6
-1 11 2 17 5 13 3 -3 4 -12 1 -19z m-1237 -29 c0 -5 -4 -9 -10 -9 -5 0 -10 7
-10 16 0 8 5 12 10 9 6 -3 10 -10 10 -16z"/>
<path d="M1777 2683 c-4 -3 -7 -120 -7 -260 l0 -253 64 0 c104 0 190 48 222
126 22 51 28 150 15 216 -17 78 -73 142 -144 163 -52 15 -138 20 -150 8z"/>
</g>
</svg>
